<svg xmlns="http://www.w3.org/2000/svg" viewBox="0 0 848.97 861.91"><defs><style>.cls-1{isolation:isolate;}.cls-2{mix-blend-mode:multiply;}.cls-3{fill:#21f4f4;}</style></defs><title>Asset 1</title><g class="cls-1"><g id="Layer_2" data-name="Layer 2"><g id="Layer_1-2" data-name="Layer 1"><g class="cls-2"><path class="cls-3" d="M0,17.65C20.19,9.31,43,13,64.75,15.05,198.83,27.75,338.57-26,466.19,17c6.52,2.2,13.26,4.84,17.75,10.07,7.23,8.42,6.51,21.35,1.93,31.46S473.55,76.91,467.15,86c-8.3,11.78-14.52,25.67-14.07,40.07s8.83,29.12,22.42,33.93c17.75,6.29,36.24-5.21,52.89-14,14.1-7.47,29.6-13.37,45.54-12.79s32.36,8.82,39,23.31c6.17,13.39,4.26,31.33,15.84,40.45,12.92,10.16,31.28,1.34,47.24-2.53,24.45-5.93,51.77,2,69.25,20.08s24.46,45.67,17.7,69.89c-3.7,13.28-11.15,25.38-13.92,38.88-4.8,23.45,6.58,49.35,27.12,61.66,19.06,11.42,46.09,13.41,56.22,33.19,9.41,18.36-2.78,41-19.09,53.68s-36.57,19.54-52.4,32.76S734.58,541.78,746,559c15.3,23.11,51.85,13.3,76.79,25.39,21.2,10.28,31.23,37.85,23.77,60.19s-30.15,38-53.66,39.48c-29.71,1.91-56.67-15.65-84.9-25.1s-66.81-6.29-78.08,21.26c-7.15,17.49-.6,39.82-12.38,54.6-11.9,14.94-35.93,12.77-52.38,3.06s-29-25-45.51-34.69c-21.69-12.7-47.95-14.42-73.08-14.29-9.41,0-20,.82-26.2,7.86-10.84,12.23-.05,31.35,12,42.37s27.08,24,24.11,40c-3.46,18.72-30.56,30.25-25.92,48.71,1.32,5.25,5.26,9.83,5.29,15.24.05,10.53-13.31,15-23.8,15.76-70.71,5.37-141.59-15.44-212.2-9-41.92,3.85-83.91,17.26-125.34,9.77C50.6,855.35,22,842.23.28,831.3"/></g></g></g></g></svg>