<svg xmlns="http://www.w3.org/2000/svg" viewBox="0 0 1147.96 867.86"><defs><style>.cls-1{isolation:isolate;}.cls-2{mix-blend-mode:multiply;}.cls-3{fill:#ff83ff;}</style></defs><title>Asset 3</title><g class="cls-1"><g id="Layer_2" data-name="Layer 2"><g id="Layer_1-2" data-name="Layer 1"><g class="cls-2"><path class="cls-3" d="M1115.71,3.49c-24-2.79-48.31-5.57-72-1.27S996.54,19,984.88,40.13c-15.74,28.45-8.52,68.16-31.86,90.8-24,23.24-63.48,13.18-94.34.44s-68.1-26.24-95.47-7.12C737.86,142,735.78,180.93,750.78,208c6.33,11.42,15.09,21.52,20.09,33.58s5.32,27.53-4,36.68c-6,5.86-14.67,8-23,8.57-65.38,4.51-114.27-68.39-179.71-71.86-7.84-.42-16.48.53-22,6.12-12.17,12.33,1.34,33.41,16.9,41.05s35,11.55,43.37,26.75c9.15,16.7-2.19,39.18-19.64,46.82s-38,3.48-55.08-5-31.79-20.9-48-30.85c-48.89-30-111.81-35.86-165.41-15.45-7.95,3-16.5,7.46-19.11,15.56-2.7,8.37,2,17.19,7,24.43a215.55,215.55,0,0,0,75.85,67.47c6.5,3.45,14.25,8.33,13.61,15.66-.33,3.86-3.05,7.06-5.83,9.75-21.18,20.51-54.34,27.62-82.07,17.6s-48.69-36.69-51.86-66c-3.87-35.81,15-78-9-104.78-9.75-10.86-24.67-15.85-39.23-16.91-38.32-2.79-77.13,21.16-91.81,56.66s-4.14,79.87,25,105c43.61,37.61,117,30.88,152.39,76.32,22.51,28.9,19.75,74.43-6.08,100.4-17,17.13-40.92,25.08-62.34,36.24s-42.63,28.77-45.25,52.78c-2.94,26.93,23.9,52.82,50.71,48.92C241,721.3,253.7,712,268,707.52s33.49-1.36,38.37,12.76c2.33,6.75.61,14.32-2.7,20.65-10.33,19.73-34.61,28.88-56.84,27.62s-43-10.95-63-20.69C129,721.22-16.52,733.06,1.54,764.7c12.85,22.51,40.4,32.13,66.16,34.94,49.54,5.41,102.54-7.13,147.71,13.93,15.1,7,28.51,17.58,44.15,23.34s32.48,6.41,49.06,6.41c106.35,0,212-25.32,318.17-19.22,58.77,3.38,116.5,16.33,174.74,24.9,87.76,12.9,176.65,15.82,265.32,18.72,10.72.35,22.13.52,31.28-5.08,8.64-5.3,13.66-14.83,17.75-24.11,24-54.47,29.84-115.12,31.5-174.62,3.69-131.93-11.54-263.67-12.38-395.64-.57-88.4,5.1-178.63-19.68-263.48"/></g></g></g></g></svg>